# 3ds Max Wavefront OBJ Exporter v0.97b - (c)2007 guruware
# File Created: 16.10.2022 22:03:41

mtllib computer_02_1.mtl

#
# object computer_02
#

v  -59.3064 24.2695 -7.8226
v  -59.3064 22.2180 -1.5360
v  -60.3047 23.4683 -0.5675
v  45.9300 99.3913 -9.3376
v  40.5503 99.3913 -9.3376
v  40.5503 101.2155 -10.0932
v  45.9300 101.2155 -10.0932
v  45.9300 98.6356 -7.5133
v  40.5637 98.6356 -7.5133
v  -62.6244 103.0398 -9.3376
v  -59.3634 103.0398 -9.3376
v  -59.3634 101.2155 -10.0932
v  -62.6244 101.2155 -10.0932
v  42.9785 79.6729 49.2520
v  42.9785 76.2135 47.6279
v  42.9785 98.5308 1.0275
v  42.9785 101.9902 2.6516
v  40.9579 77.0774 45.8241
v  40.9579 80.5368 47.4482
v  41.4653 101.1264 4.4554
v  41.4653 97.6670 2.8313
v  -58.3639 81.7652 43.4940
v  -58.3639 98.8156 7.8913
v  -58.9639 99.4641 7.9263
v  -58.9639 82.1990 43.9773
v  -55.8670 99.8942 5.6393
v  -56.1155 100.6945 5.3573
v  -52.0167 99.8942 5.6393
v  -51.4167 100.6945 5.3573
v  -52.0167 80.6867 45.7460
v  -51.4167 80.9687 46.5463
v  -55.8669 80.6868 45.7460
v  -56.1155 80.9687 46.5463
v  -50.6822 101.2155 -4.9334
v  -50.6822 99.3913 -5.6891
v  -2.1093 99.3913 -5.6891
v  -50.6822 103.0398 -5.6891
v  -2.1093 101.2155 -4.9334
v  40.5503 99.3913 -5.6891
v  40.5503 101.2155 -4.9334
v  -2.1093 103.0398 -5.6891
v  -50.4167 97.6670 2.8313
v  -50.4167 101.1264 4.4554
v  -50.4167 80.5368 47.4482
v  -50.4167 77.0774 45.8241
v  -2.1093 101.9902 2.6516
v  -2.1093 98.5308 1.0275
v  -50.4167 98.5308 1.0275
v  -50.4167 101.9902 2.6516
v  -57.3581 98.5308 1.0275
v  -57.3581 101.9902 2.6516
v  -44.1735 80.5368 47.4482
v  -44.1735 77.0774 45.8241
v  -2.1093 97.6670 2.8313
v  -2.1093 101.1264 4.4554
v  -62.6244 99.3913 -9.3376
v  -59.3634 99.3913 -9.3376
v  -59.3634 98.6357 -7.5133
v  -62.6244 98.6357 -7.5133
v  -49.2825 75.7724 -27.3270
v  -50.1596 76.4205 -27.0586
v  -50.1596 75.2255 -25.2702
v  -49.2825 74.7295 -25.7662
v  -49.2825 76.1386 -29.1681
v  -50.1596 76.8401 -29.1681
v  -49.2825 75.7724 -31.0093
v  -50.1596 76.4205 -31.2777
v  -49.2825 74.7295 -32.5701
v  -50.1596 75.2255 -33.0661
v  -49.2825 73.1687 -33.6130
v  -50.1596 73.4371 -34.2611
v  -49.2825 71.3276 -33.9792
v  -50.1596 71.3276 -34.6807
v  -49.2825 69.4864 -33.6130
v  -50.1596 69.2180 -34.2611
v  -49.2825 67.9256 -32.5701
v  -50.1596 67.4296 -33.0661
v  -49.2825 66.8827 -31.0093
v  -50.1596 66.2346 -31.2777
v  -49.2825 66.5165 -29.1681
v  -50.1596 65.8150 -29.1681
v  -49.2825 66.8827 -27.3270
v  -50.1596 66.2346 -27.0586
v  -49.2825 67.9256 -25.7662
v  -50.1596 67.4296 -25.2702
v  -49.2825 69.4864 -24.7233
v  -50.1596 69.2180 -24.0752
v  -49.2825 71.3276 -24.3571
v  -50.1596 71.3276 -23.6556
v  -49.2825 73.1687 -24.7233
v  -50.1596 73.4371 -24.0752
v  45.9300 103.7954 -7.5133
v  40.5503 103.7954 -7.5133
v  40.5503 103.0398 -5.6891
v  45.9300 103.0398 -5.6891
v  45.9300 101.2155 -4.9334
v  -50.6822 103.7954 -7.5133
v  -50.7068 102.5931 -12.7372
v  -59.3064 102.5931 -12.7372
v  -59.3634 103.7954 -7.5133
v  -62.6244 99.3913 -5.6891
v  -59.3634 99.3913 -5.6891
v  -59.3634 101.2155 -4.9335
v  -62.6244 101.2155 -4.9335
v  -62.6244 103.7954 -7.5133
v  -62.6244 103.0398 -5.6891
v  -59.3634 103.0398 -5.6891
v  -59.3064 69.2503 -35.1017
v  -50.7068 69.2503 -35.1017
v  -50.7068 44.0268 -22.9703
v  -59.3064 51.7049 -26.6631
v  -59.3064 44.0268 -22.9703
v  -57.5865 15.4210 -8.9785
v  -57.5865 9.2302 -6.0073
v  -59.3064 9.2304 -6.0313
v  -59.3064 16.9683 -9.7294
v  -50.7068 16.9683 -9.7294
v  -59.3064 32.5487 -17.3177
v  -50.7068 32.5487 -17.3177
v  -52.4267 34.0871 -18.0869
v  -52.4267 42.1401 -22.0373
v  -57.5865 42.1401 -22.0373
v  -57.5865 34.0871 -18.0869
v  -50.7068 9.2304 -6.0313
v  -52.4267 9.2302 -6.0073
v  -52.4267 15.4210 -8.9785
v  -50.6822 98.6357 -7.5133
v  -50.6822 99.3913 -9.3376
v  -2.1093 99.3913 -9.3376
v  -2.1093 98.6357 -7.5133
v  -57.3581 76.2135 47.6279
v  -61.9639 78.2029 43.4739
v  -61.9639 96.5414 5.1815
v  -50.4167 76.2135 47.6279
v  -44.1735 76.2135 47.6279
v  35.4913 76.2135 47.6279
v  35.4956 77.0774 45.8241
v  -2.1066 100.1067 -2.5571
v  41.1551 100.1067 -2.5571
v  -59.3064 51.7049 -21.2863
v  -61.0263 25.5422 -7.0294
v  -61.0263 51.4880 -19.7163
v  -59.3064 57.0443 -18.4295
v  -60.6646 56.2315 -16.9544
v  -52.4267 20.1317 -38.7537
v  -52.4267 15.4484 -32.9161
v  -52.4267 15.3718 -42.3982
v  -52.4267 9.2297 -33.0309
v  -52.4267 9.2243 -47.3033
v  -57.5865 9.2297 -33.0309
v  -57.5865 15.4484 -32.9161
v  -57.5865 9.2243 -47.3033
v  -57.5865 15.3718 -42.3982
v  -57.5865 20.1317 -38.7537
v  -59.3064 94.9657 -7.7737
v  -50.7068 94.9657 -7.7737
v  -41.9717 76.0484 57.6764
v  -42.4536 80.0731 50.3875
v  -42.4536 75.0780 48.0280
v  -41.9717 71.9221 55.7329
v  -60.6858 73.1687 -33.6130
v  -60.6858 75.7724 -27.3270
v  -60.6858 76.1386 -29.1681
v  -60.6858 75.7724 -31.0093
v  -60.6858 74.7295 -32.5701
v  -60.6858 69.4864 -24.7233
v  -60.6858 73.1687 -24.7233
v  -60.6858 74.7295 -25.7662
v  -60.6858 66.8827 -31.0093
v  -60.6858 71.3276 -33.9792
v  -60.6858 69.4864 -33.6130
v  -60.6858 67.9256 -32.5701
v  -60.6858 71.3276 -24.3571
v  -60.6858 66.5165 -29.1681
v  -60.6858 66.8827 -27.3270
v  -60.6858 67.9256 -25.7662
v  -50.7068 24.2695 -13.2854
v  -50.6822 101.2155 -10.0932
v  -2.1093 101.2155 -10.0932
v  -50.6822 103.0398 -9.3376
v  -2.1093 103.0398 -9.3376
v  40.5503 103.0398 -9.3376
v  -48.9869 25.5422 -7.0294
v  -49.7083 23.4683 -0.5676
v  -50.7068 22.2180 -1.5360
v  -49.3487 56.2316 -16.9543
v  -48.9869 51.4880 -19.7163
v  -50.7068 24.2695 -7.8226
v  -59.3064 9.2304 4.8852
v  -50.7068 9.2304 4.8852
v  -64.6132 9.8658 4.8732
v  -76.1408 3.5346 11.7898
v  65.1422 3.5346 11.7898
v  53.6145 9.8658 4.8732
v  65.1422 0.3164 11.7898
v  -76.1408 0.3164 11.7898
v  -76.1408 0.3164 -54.3187
v  -7.5562 0.3164 -54.3187
v  65.1422 0.3164 -54.3187
v  -2.1093 103.3947 0.3272
v  -2.1093 105.2190 -0.4285
v  40.5671 105.2190 -0.4285
v  40.5671 103.3947 0.3272
v  -2.1093 103.7954 -7.5133
v  -3.3797 107.1556 0.0220
v  -3.3770 106.1640 -3.9787
v  -2.1093 102.7351 1.3123
v  41.1524 102.7351 1.3123
v  35.4956 80.5368 47.4482
v  35.4913 79.6729 49.2520
v  -61.9639 100.0009 6.8055
v  -61.9639 81.6623 45.0980
v  -57.3581 79.6729 49.2520
v  -50.4167 79.6729 49.2520
v  -44.1735 79.6729 49.2520
v  41.1559 106.1640 -3.9787
v  -7.8196 109.1542 -4.7876
v  41.1563 109.1542 -4.7876
v  -14.3578 113.7121 -6.0311
v  -13.7355 115.6427 -6.5534
v  -7.4033 111.0848 -5.3099
v  40.4080 111.0848 -5.3099
v  43.8421 114.3999 -6.2067
v  45.8421 113.6002 -5.9904
v  43.8421 153.7843 -16.8616
v  45.8421 154.5840 -17.0780
v  40.4080 157.0994 -17.7585
v  41.2364 159.0300 -18.2808
v  -50.8017 159.0300 -18.2808
v  -44.1659 159.0300 -18.2808
v  -44.1701 157.0994 -17.7585
v  -49.9733 157.0994 -17.7585
v  -62.1095 147.5763 -15.2637
v  -53.4075 153.7843 -16.8616
v  -62.2067 113.5608 -5.9730
v  -53.4075 118.9578 -7.4637
v  -50.8017 113.7121 -6.0446
v  -49.9733 115.6427 -6.5669
v  -59.3064 69.2503 -24.1852
v  -59.3064 72.8622 -35.1017
v  -59.3064 72.8622 -24.1852
v  -50.7068 69.2503 -24.1852
v  -50.7068 57.0443 -18.4295
v  -50.7068 51.7049 -21.2863
v  -50.7068 72.8622 -24.1852
v  -50.7068 72.8622 -35.1017
v  41.1532 107.1556 0.0220
v  41.1537 110.1458 -0.7870
v  -7.8223 110.1458 -0.7870
v  41.2337 160.0216 -14.2802
v  40.4053 158.0910 -13.7579
v  43.8395 154.7759 -12.8610
v  45.8395 155.5756 -13.0774
v  43.8395 115.3914 -2.2061
v  45.8395 114.5918 -1.9898
v  40.4053 112.0764 -1.3093
v  -7.4060 112.0764 -1.3093
v  -13.7382 116.6343 -2.5527
v  -14.3605 114.7037 -2.0304
v  -49.9760 116.6343 -2.5662
v  -50.8044 114.7037 -2.0439
v  -62.2093 114.5524 -1.9723
v  -53.4102 119.9493 -3.4630
v  -62.1122 148.5679 -11.2631
v  -53.4102 154.7759 -12.8610
v  -50.8044 160.0216 -14.2802
v  -49.9760 158.0910 -13.7579
v  -44.1686 160.0216 -14.2802
v  -44.1728 158.0910 -13.7579
v  33.2901 76.0503 57.6746
v  33.7714 80.0747 50.3855
v  33.7756 81.6728 47.0456
v  -42.4536 81.6723 47.0481
v  53.6145 9.8658 -47.4021
v  65.1422 3.5346 -54.3187
v  -7.7401 3.5346 -54.3187
v  -7.1817 9.8658 -47.4021
v  -64.6132 9.8658 -47.4021
v  -76.1408 3.5346 -54.3187
v  -33.1874 158.8554 -13.4647
v  -42.5919 158.8541 -13.4654
v  -43.1722 158.4084 -12.8921
v  -33.1874 158.4097 -12.8913
v  -29.5595 158.8553 -13.4649
v  -29.5594 158.4097 -12.8915
v  -13.6154 158.8553 -13.4650
v  -12.0775 158.4097 -12.8915
v  -43.1695 162.7104 -14.0546
v  -33.5064 162.7111 -14.0560
v  -33.1834 163.6764 -14.3173
v  -29.5552 161.1494 -13.6336
v  -29.8783 160.1842 -13.3722
v  -13.7911 161.1494 -13.6336
v  -14.1682 160.1842 -13.3722
v  -9.4260 157.4445 -12.6300
v  -29.5594 157.4445 -12.6300
v  -33.1873 157.4445 -12.6300
v  -44.1728 157.4429 -12.6309
v  -44.1689 163.6755 -14.3158
v  33.2900 71.9229 55.7308
v  33.7714 75.0786 48.0257
v  -42.4536 76.6773 44.6886
v  33.7756 76.6789 44.6867
v  -42.5898 162.0364 -14.3250
v  -14.3870 159.5102 -13.6424
v  -30.0657 159.5102 -13.6424
v  -33.6938 162.0371 -14.3263
v  -13.7911 159.5933 -19.3867
v  -9.4260 155.8877 -18.3855
v  -29.5552 159.5933 -19.3867
v  -33.1834 162.1203 -20.0704
v  -44.1728 155.8869 -18.3840
v  -44.1689 162.1188 -20.0712
v  45.9300 99.3913 -5.6891
v  45.9300 103.0398 -9.3376
v  -29.5594 155.8877 -18.3855
v  -33.1873 155.8877 -18.3855
v  -59.8086 69.2180 -24.0752
v  -59.8086 71.3276 -23.6556
v  -59.8086 67.4296 -25.2702
v  -59.8086 66.2346 -27.0586
v  -59.8086 65.8150 -29.1681
v  -59.8086 66.2346 -31.2777
v  -59.8086 67.4296 -33.0661
v  -59.8086 69.2180 -34.2611
v  -59.8086 71.3276 -34.6807
v  -59.8086 73.4371 -34.2611
v  -59.8086 75.2255 -33.0661
v  -59.8086 76.4205 -31.2777
v  -59.8086 76.8401 -29.1681
v  -59.8086 76.4205 -27.0586
v  -59.8086 75.2255 -25.2702
v  -59.8086 73.4371 -24.0752
v  -59.8086 68.8489 -23.1842
v  -50.1596 68.8489 -23.1842
v  -50.1596 71.3276 -22.6911
v  -59.8086 71.3276 -22.6911
v  -59.8086 66.7476 -24.5882
v  -50.1596 66.7476 -24.5882
v  -59.8086 65.3436 -26.6895
v  -50.1596 65.3436 -26.6895
v  -59.8086 64.8505 -29.1681
v  -50.1596 64.8505 -29.1681
v  -59.8086 65.3436 -31.6468
v  -50.1596 65.3436 -31.6468
v  -59.8086 66.7476 -33.7481
v  -50.1596 66.7476 -33.7481
v  -59.8086 68.8489 -35.1521
v  -50.1596 68.8489 -35.1521
v  -59.8086 71.3276 -35.6452
v  -50.1596 71.3276 -35.6452
v  -59.8086 73.8062 -35.1521
v  -50.1596 73.8062 -35.1521
v  -59.8086 75.9075 -33.7481
v  -50.1596 75.9075 -33.7481
v  -59.8086 77.3115 -31.6468
v  -50.1596 77.3115 -31.6468
v  -59.8086 77.8046 -29.1681
v  -50.1596 77.8046 -29.1681
v  -59.8086 77.3115 -26.6895
v  -50.1596 77.3115 -26.6895
v  -59.8086 75.9075 -24.5882
v  -50.1596 75.9075 -24.5882
v  -59.8086 73.8062 -23.1842
v  -50.1596 73.8062 -23.1842
v  -49.7576 156.1376 -12.9992
v  -49.7576 117.4508 -2.8339
v  40.2424 117.4508 -2.8339
v  40.2424 156.1376 -12.9992
v  -49.7576 99.3719 6.9647
v  -49.7576 82.0598 43.0243
v  40.2424 82.0598 43.0243
v  40.2424 99.3719 6.9647
v  -49.7576 156.0223 -13.4380
v  40.2424 156.0223 -13.4380
v  40.2424 117.3355 -3.2727
v  -49.7576 117.3355 -3.2727
v  -49.7576 99.2044 6.8843
v  40.2424 99.2044 6.8843
v  40.2424 81.8923 42.9439
v  -49.7576 81.8923 42.9439
# 381 vertices

vn -0.8306 -0.5294 -0.1728
vn 0.0000 -0.3827 -0.9239
vn 0.0000 -0.9239 -0.3827
vn 0.0000 0.3827 -0.9239
vn 1.0000 0.0000 -0.0000
vn -0.9999 0.0045 -0.0096
vn 0.7071 0.6377 0.3054
vn 0.5000 0.4218 0.7564
vn 0.0000 0.3323 0.9432
vn -0.7071 0.6377 0.3054
vn 0.0000 0.9432 -0.3323
vn 0.0000 0.9432 -0.3322
vn 0.4999 0.8538 -0.1455
vn 0.5000 0.8537 -0.1456
vn 0.5000 0.8537 -0.1455
vn 0.4999 0.8538 -0.1454
vn -0.0000 0.9019 0.4319
vn 0.0000 0.9019 0.4319
vn 0.0000 -0.0000 1.0000
vn 0.0000 -0.7071 0.7071
vn -0.0000 -0.7071 0.7071
vn 0.0000 0.7071 0.7071
vn 0.0000 -0.1368 0.9906
vn 0.0000 -0.3827 0.9239
vn 0.0000 0.4250 -0.9052
vn 0.0000 -0.4250 0.9052
vn 0.6172 0.6542 0.4371
vn 0.6172 0.7717 0.1535
vn 0.6172 0.7717 -0.1535
vn 0.6172 0.6542 -0.4371
vn 0.6172 0.4371 -0.6542
vn 0.6172 0.1535 -0.7717
vn 0.6172 -0.1535 -0.7717
vn 0.6172 -0.4371 -0.6542
vn 0.6172 -0.6542 -0.4371
vn 0.6172 -0.7717 -0.1535
vn 0.6172 -0.7717 0.1535
vn 0.6172 -0.6542 0.4371
vn 0.6172 -0.6542 0.4372
vn 0.6172 -0.4371 0.6542
vn 0.6172 -0.1535 0.7717
vn 0.6172 0.1535 0.7717
vn 0.0000 0.9239 0.3827
vn 0.0000 0.3827 0.9239
vn 0.0000 0.9745 -0.2243
vn -0.0000 -0.3936 0.9193
vn -0.0000 -0.3827 0.9239
vn 0.0000 -0.9239 0.3827
vn 0.0000 0.9239 -0.3827
vn -0.0000 0.3827 0.9239
vn -0.0000 -0.4334 -0.9012
vn 0.0000 -0.4334 -0.9012
vn -0.0004 -0.4378 -0.8991
vn 0.0004 -0.4380 -0.8990
vn 0.0033 -0.4340 -0.9009
vn 0.0125 -0.4327 -0.9015
vn 0.0115 -0.4324 -0.9016
vn 0.0015 -0.4359 -0.9000
vn -0.7077 -0.3082 -0.6358
vn -0.0014 -0.4409 -0.8975
vn -0.7066 -0.3122 -0.6350
vn 0.0027 -0.4445 -0.8958
vn -0.0020 -0.4418 -0.8971
vn 0.0007 -0.4425 -0.8968
vn -0.0038 -0.4438 -0.8961
vn -0.0125 -0.4312 -0.9022
vn -0.0115 -0.4314 -0.9021
vn -0.0022 -0.4346 -0.9006
vn 0.0000 -1.0000 0.0000
vn 0.0000 -0.7071 -0.7071
vn -0.0000 -1.0000 0.0000
vn -0.0000 -0.7071 -0.7071
vn 0.0000 -0.9019 -0.4319
vn 0.0000 -0.9054 -0.4246
vn -0.0000 -0.9019 -0.4319
vn -0.0000 -0.9077 -0.4196
vn 0.0000 -0.9154 -0.4025
vn -0.6067 -0.3493 -0.7141
vn -0.5949 -0.3541 -0.7216
vn -0.5953 -0.3539 -0.7213
vn -0.6074 -0.3489 -0.7136
vn -0.7487 0.3606 -0.5563
vn -0.6539 0.3569 -0.6671
vn -0.6816 0.3587 -0.6378
vn -0.7767 0.3601 -0.5167
vn -1.0000 0.0000 -0.0000
vn 0.0000 -0.5137 0.8580
vn 0.0000 -0.4045 0.9145
vn -0.9983 -0.0247 0.0523
vn 0.0000 -0.0000 -1.0000
vn 0.0000 0.7071 -0.7071
vn 0.8122 -0.5757 -0.0941
vn 0.9961 0.0375 0.0797
vn 0.9904 0.0529 0.1276
vn 0.9909 0.0518 0.1241
vn 0.9969 0.0347 0.0710
vn -0.9961 0.0375 0.0797
vn -0.9969 0.0347 0.0710
vn -0.9909 0.0518 0.1241
vn -0.9904 0.0529 0.1276
vn 0.0000 1.0000 0.0011
vn 0.0000 0.6237 -0.7817
vn 0.0000 0.6158 -0.7879
vn 0.0000 0.6064 -0.7952
vn 0.0000 0.6049 -0.7963
vn 0.6461 -0.7256 -0.2368
vn 0.0000 0.4432 0.8964
vn 0.0000 0.7376 0.6752
vn 0.0000 -1.0000 -0.0000
vn 1.0000 -0.0011 -0.0027
vn 0.0000 1.0000 0.0000
vn -0.6357 -0.7528 -0.1706
vn -0.9738 -0.2087 0.0898
vn -0.9798 -0.1943 0.0475
vn -0.9712 -0.2138 0.1050
vn -0.9605 -0.2305 0.1559
vn 0.0000 0.8739 0.4861
vn 0.0000 0.8930 0.4501
vn 0.0000 0.8937 0.4488
vn -1.0000 0.0000 -0.0003
vn -1.0000 0.0000 -0.0007
vn -1.0000 0.0000 -0.0006
vn 0.7824 0.4456 -0.4350
vn 0.9065 0.1794 -0.3822
vn 0.8283 0.3676 -0.4229
vn 0.5997 0.6622 -0.4494
vn 0.0000 -0.2285 -0.9735
vn 0.0000 -0.2497 -0.9683
vn 0.0000 -0.2448 -0.9696
vn 0.0005 -0.2612 -0.9653
vn 0.0000 -0.2611 -0.9653
vn 0.0008 -0.2614 -0.9652
vn 0.0007 -0.2613 -0.9653
vn -0.0000 -0.2611 -0.9653
vn -0.0000 -0.2612 -0.9653
vn 0.0024 -0.2602 -0.9656
vn 0.0032 -0.2611 -0.9653
vn 0.0110 -0.2639 -0.9645
vn 0.0280 -0.2866 -0.9576
vn -0.0014 -0.2616 -0.9652
vn -0.0030 -0.2612 -0.9653
vn -0.0008 -0.2616 -0.9652
vn 0.0002 -0.2612 -0.9653
vn -0.9999 0.0001 -0.0127
vn -1.0000 -0.0064 -0.0035
vn -0.9992 -0.0236 -0.0337
vn -0.9999 -0.0156 0.0004
vn -0.9999 -0.0160 0.0066
vn -0.9997 -0.0043 -0.0238
vn -0.9987 0.0454 -0.0227
vn -0.9979 0.0592 -0.0245
vn 1.0000 -0.0027 -0.0016
vn 1.0000 -0.0001 -0.0053
vn 0.9999 -0.0048 -0.0124
vn 0.9998 0.0196 -0.0098
vn 0.9996 0.0256 -0.0106
vn 0.9969 -0.0310 -0.0721
vn 1.0000 -0.0067 0.0002
vn 1.0000 -0.0069 0.0029
vn 0.0000 0.2802 0.9599
vn 0.0000 0.2707 0.9627
vn 0.0000 0.2676 0.9635
vn -0.0000 0.2612 0.9653
vn -0.0005 0.2613 0.9653
vn 0.0000 0.2612 0.9653
vn 0.0000 0.2611 0.9653
vn -0.0000 0.2611 0.9653
vn -0.0007 0.2613 0.9653
vn -0.0008 0.2614 0.9652
vn 0.0010 0.2614 0.9652
vn 0.0015 0.2605 0.9655
vn 0.0020 0.2630 0.9648
vn 0.0012 0.2631 0.9648
vn -0.0077 0.2614 0.9652
vn -0.0115 0.2654 0.9641
vn -0.0019 0.2620 0.9651
vn -0.0000 0.8893 0.4574
vn -0.0000 0.8754 0.4834
vn -0.0000 0.8754 0.4833
vn -0.0000 0.8894 0.4572
vn -0.0000 0.9021 0.4316
vn 0.0001 0.9706 -0.2406
vn -0.5856 -0.7869 0.1946
vn -0.5788 -0.7916 0.1958
vn -0.5787 -0.7917 0.1958
vn -0.5719 -0.7963 0.1970
vn 0.5979 0.7781 -0.1925
vn 0.0000 0.9706 -0.2406
vn 0.0144 -0.9705 0.2406
vn 0.0071 -0.9706 0.2406
vn 0.0072 -0.9706 0.2406
vn -0.0001 -0.9706 0.2406
vn -0.9239 0.3713 -0.0927
vn 0.0000 0.7376 -0.6752
vn 0.0000 0.4030 -0.9152
vn -0.0000 0.7895 0.6137
vn -0.0002 0.7896 0.6137
vn -0.0001 0.7895 0.6137
vn 0.0000 0.7896 0.6136
vn 0.0000 0.7897 0.6136
vn -0.0001 0.2611 0.9653
vn 0.0001 0.2613 0.9653
vn 0.0001 0.2614 0.9652
vn -0.0000 0.2614 0.9652
vn -0.0000 0.2615 0.9652
vn 0.0000 0.2615 0.9652
vn -0.0000 0.2613 0.9652
vn -0.0000 0.2613 0.9653
vn 0.0000 1.0000 -0.0000
vn 0.9983 -0.0247 0.0523
vn -0.4448 -0.3813 0.8104
vn -0.4463 -0.3803 0.8100
vn -0.4426 -0.3826 0.8110
vn -0.4417 -0.3832 0.8112
vn -0.4436 0.8083 0.3871
vn -0.4448 0.3813 -0.8104
vn -0.4463 0.3803 -0.8100
vn -0.4426 0.3826 -0.8110
vn -0.4417 0.3832 -0.8112
vn -0.4436 -0.8083 -0.3871
vn 0.4434 0.3816 -0.8110
vn 0.4419 0.3812 -0.8120
vn 0.4456 0.3820 -0.8097
vn 0.4465 0.3822 -0.8091
vn 0.4437 0.8080 0.3876
vn 0.4443 0.8076 0.3878
vn 0.4436 0.8081 0.3875
vn 0.4432 0.8084 0.3874
vn 0.4414 -0.3820 0.8119
vn 0.4399 -0.3817 0.8129
vn 0.4436 -0.3824 0.8106
vn 0.4445 -0.3826 0.8100
vn 0.4434 -0.8086 -0.3866
vn 0.4430 -0.8090 -0.3864
vn 0.4436 -0.8085 -0.3867
vn 0.4439 -0.8083 -0.3868
vn 0.0000 -0.4261 0.9047
vn -0.0000 0.4271 -0.9042
vn 0.0000 -0.9018 -0.4322
vn 0.0000 -0.9137 -0.4063
vn -0.0000 -0.9138 -0.4062
vn -0.0000 -0.9254 -0.3790
vn 0.6019 0.2080 0.7710
vn 0.6015 0.2079 0.7713
vn 0.6016 0.2079 0.7712
vn 0.6020 0.2080 0.7710
vn -0.3974 -0.2274 0.8890
vn 0.0000 -0.3721 0.9282
vn -0.3521 -0.2624 0.8984
vn -0.3521 -0.2623 0.8985
vn 0.0002 -0.3722 0.9281
vn 0.0002 -0.3723 0.9281
vn 0.6604 0.7249 -0.1961
vn 0.6603 0.7249 -0.1961
vn 0.0000 0.9653 -0.2611
vn 0.5851 0.7828 -0.2117
vn -1.0000 -0.0003 -0.0007
vn -1.0000 -0.0001 -0.0056
vn -1.0000 0.0005 -0.0002
vn -1.0000 0.0004 0.0002
vn -1.0000 0.0022 0.0004
vn -1.0000 0.0026 -0.0007
vn -1.0000 0.0010 0.0028
vn -1.0000 -0.0004 0.0010
vn -0.0001 0.9653 -0.2611
vn 0.0000 -0.2608 -0.9654
vn 0.0001 -0.2609 -0.9654
vn -0.0000 -0.2609 -0.9654
vn 0.0000 -0.2610 -0.9653
vn 0.0000 -0.2612 -0.9653
vn 0.0001 -0.2613 -0.9653
vn 0.0000 -0.9653 0.2611
vn 0.0001 -0.9653 0.2611
vn 0.0004 0.2619 0.9651
vn 0.0001 0.2616 0.9652
vn 0.0001 0.2613 0.9652
vn -0.0001 0.2609 0.9654
vn -0.0001 0.2608 0.9654
vn 0.0000 -0.6124 0.7906
vn 0.0000 -0.6123 0.7906
vn 0.0000 -0.6226 0.7825
vn -0.4814 0.8765 -0.0000
vn 0.4814 0.8765 -0.0000
vn 1.0000 0.0002 0.0006
vn -1.0000 -0.0002 -0.0006
vn -1.0000 0.0025 -0.0013
vn 0.0000 -0.9706 0.2406
vn -0.6171 -0.1535 0.7717
vn -0.6172 -0.1535 0.7717
vn -0.6171 -0.4372 0.6542
vn -0.6171 -0.6542 0.4372
vn -0.6171 -0.6543 0.4372
vn -0.6172 -0.7717 0.1535
vn -0.6171 -0.7717 0.1535
vn -0.6171 -0.7717 -0.1535
vn -0.6172 -0.7717 -0.1535
vn -0.6171 -0.6542 -0.4372
vn -0.6171 -0.4372 -0.6542
vn -0.6171 -0.4372 -0.6543
vn -0.6172 -0.1535 -0.7717
vn -0.6171 -0.1535 -0.7717
vn -0.6171 0.1535 -0.7717
vn -0.6172 0.1535 -0.7717
vn -0.6171 0.4372 -0.6542
vn -0.6171 0.6542 -0.4372
vn -0.6171 0.6543 -0.4372
vn -0.6172 0.7717 -0.1535
vn -0.6171 0.7717 -0.1535
vn -0.6171 0.7717 0.1535
vn -0.6172 0.7717 0.1535
vn -0.6171 0.6542 0.4372
vn -0.6171 0.4372 0.6542
vn -0.6171 0.4372 0.6543
vn -0.6172 0.1535 0.7717
vn -0.6171 0.1535 0.7717
vn 0.6172 0.4371 0.6542
vn 0.0000 0.6011 -0.7991
vn 0.0000 -0.5961 0.8029
vn 0.0000 0.0000 -1.0000
vn 0.0000 0.0000 1.0000
vn -0.0000 0.8759 0.4825
vn 0.0000 0.8759 0.4825
vn -0.0000 0.8758 0.4826
vn 0.0000 0.4473 0.8944
vn -0.0000 0.4473 0.8944
vn 0.0000 0.4265 0.9045
vn -0.7071 0.3005 -0.6401
vn -0.7071 -0.3005 0.6401
vn 0.7009 -0.6922 0.1720
vn -0.7070 0.6863 -0.1706
vn -0.7070 0.6863 -0.1705
vn 0.7070 0.6865 -0.1697
vn -0.7070 -0.6865 0.1697
vn -0.7233 0.6702 -0.1666
vn 0.7070 -0.6863 0.1706
vn 0.6780 0.3918 -0.6220
vn 0.7784 0.2961 -0.5535
vn 0.7496 0.3262 -0.5759
vn 0.6395 0.4227 -0.6422
vn 0.5953 -0.3530 -0.7218
vn 0.6071 -0.3501 -0.7134
vn 0.6066 -0.3502 -0.7137
vn 0.5945 -0.3532 -0.7224
vn 0.0000 -0.1951 0.9808
vn 0.0000 -0.5556 0.8315
vn 0.0000 -0.8315 0.5556
vn 0.0000 -0.9808 0.1951
vn 0.0000 -0.9808 -0.1951
vn 0.0000 -0.8315 -0.5556
vn 0.0000 -0.5556 -0.8315
vn 0.0000 -0.1951 -0.9808
vn 0.0000 0.1951 -0.9808
vn 0.0000 0.5556 -0.8315
vn 0.0000 0.8315 -0.5556
vn 0.0000 0.9808 -0.1951
vn 0.0000 0.9808 0.1951
vn 0.0000 0.8315 0.5556
vn 0.0000 0.5556 0.8315
vn 0.0000 0.1951 0.9808
vn 1.0000 0.0000 0.0007
vn 1.0000 0.0000 0.0006
vn 0.0000 0.2541 0.9672
vn 0.0000 0.9015 0.4328
vn 0.0000 -0.2541 -0.9672
vn 0.0000 -0.9015 -0.4328
# 365 vertex normals

vt 0.6069 0.3672 0.3672
vt 0.5864 0.3433 0.3433
vt 0.5918 0.3359 0.3359
vt 0.3237 0.4668 0.4668
vt 0.3430 0.4668 0.4668
vt 0.3430 0.4736 0.4736
vt 0.3237 0.4736 0.4736
vt 0.3237 0.5159 0.5159
vt 0.3430 0.5159 0.5159
vt 0.3430 0.5229 0.5229
vt 0.3237 0.5229 0.5229
vt 0.4075 0.4736 0.4736
vt 0.4075 0.4619 0.4619
vt 0.4148 0.4619 0.4619
vt 0.4148 0.4736 0.4736
vt 0.4465 0.8795 0.8795
vt 0.4465 0.8611 0.8611
vt 0.6226 0.8611 0.8611
vt 0.6226 0.8795 0.8795
vt 0.7271 0.9333 0.9333
vt 0.7271 0.9517 0.9517
vt 0.5518 0.9517 0.9517
vt 0.5518 0.9333 0.9333
vt 0.9316 0.0229 0.0229
vt 0.9316 0.1558 0.1558
vt 0.9341 0.1567 0.1567
vt 0.9341 0.0220 0.0220
vt 0.9233 0.1646 0.1646
vt 0.9258 0.1675 0.1675
vt 0.9106 0.1646 0.1646
vt 0.9082 0.1675 0.1675
vt 0.9106 0.0156 0.0156
vt 0.9082 0.0132 0.0132
vt 0.9233 0.0156 0.0156
vt 0.9238 0.0132 0.0132
vt 0.9819 0.7849 0.7849
vt 0.9819 0.7932 0.7932
vt 0.7788 0.7932 0.7932
vt 0.9819 0.7766 0.7766
vt 0.7788 0.7849 0.7849
vt 0.6006 0.7932 0.7932
vt 0.6006 0.7849 0.7849
vt 0.7788 0.7766 0.7766
vt 0.2139 0.9333 0.9333
vt 0.2139 0.9517 0.9517
vt 0.0385 0.9517 0.9517
vt 0.0385 0.9333 0.9333
vt 0.4292 0.9719 0.9719
vt 0.4292 0.9896 0.9896
vt 0.2681 0.9896 0.9896
vt 0.2681 0.9719 0.9719
vt 0.2450 0.9896 0.9896
vt 0.2450 0.9719 0.9719
vt 0.0156 0.9517 0.9517
vt 0.0156 0.9333 0.9333
vt 0.3916 0.9333 0.9333
vt 0.3916 0.9517 0.9517
vt 0.3650 0.4736 0.4736
vt 0.3650 0.4619 0.4619
vt 0.3721 0.4619 0.4619
vt 0.3721 0.4736 0.4736
vt 0.4219 0.4619 0.4619
vt 0.4219 0.4736 0.4736
vt 0.8799 0.3232 0.3232
vt 0.8765 0.3281 0.3281
vt 0.8682 0.3198 0.3198
vt 0.8730 0.3169 0.3169
vt 0.8882 0.3267 0.3267
vt 0.8872 0.3325 0.3325
vt 0.8975 0.3267 0.3267
vt 0.8989 0.3325 0.3325
vt 0.9063 0.3232 0.3232
vt 0.9092 0.3281 0.3281
vt 0.9126 0.3164 0.3164
vt 0.9175 0.3198 0.3198
vt 0.9160 0.3081 0.3081
vt 0.9219 0.3091 0.3091
vt 0.9160 0.2988 0.2988
vt 0.9219 0.2979 0.2979
vt 0.9126 0.2905 0.2905
vt 0.9175 0.2871 0.2871
vt 0.9063 0.2837 0.2837
vt 0.9092 0.2788 0.2788
vt 0.8975 0.2803 0.2803
vt 0.8984 0.2744 0.2744
vt 0.8882 0.2803 0.2803
vt 0.8872 0.2744 0.2744
vt 0.8799 0.2837 0.2837
vt 0.8765 0.2793 0.2793
vt 0.8730 0.2905 0.2905
vt 0.8682 0.2871 0.2871
vt 0.8696 0.2988 0.2988
vt 0.8638 0.2979 0.2979
vt 0.8696 0.3081 0.3081
vt 0.8638 0.3091 0.3091
vt 0.3237 0.4878 0.4878
vt 0.3430 0.4878 0.4878
vt 0.3430 0.4946 0.4946
vt 0.3237 0.4946 0.4946
vt 0.3430 0.5017 0.5017
vt 0.3237 0.5017 0.5017
vt 0.4250 0.6091 0.6091
vt 0.4451 0.6091 0.6091
vt 0.4456 0.6411 0.6411
vt 0.4255 0.6416 0.6416
vt 0.3792 0.4736 0.4736
vt 0.3792 0.4619 0.4619
vt 0.3862 0.4619 0.4619
vt 0.3862 0.4736 0.4736
vt 0.4004 0.4736 0.4736
vt 0.4004 0.4619 0.4619
vt 0.3933 0.4736 0.4736
vt 0.3933 0.4619 0.4619
vt 0.4180 0.6416 0.6416
vt 0.4175 0.6094 0.6094
vt 0.4106 0.6416 0.6416
vt 0.4102 0.6094 0.6094
vt 0.5981 0.6389 0.6389
vt 0.5977 0.6069 0.6069
vt 0.7021 0.6055 0.6055
vt 0.6709 0.6377 0.6377
vt 0.7026 0.6372 0.6372
vt 0.8218 0.6292 0.6292
vt 0.8472 0.6287 0.6287
vt 0.8472 0.6350 0.6350
vt 0.8149 0.6357 0.6357
vt 0.8149 0.6035 0.6035
vt 0.7505 0.6365 0.6365
vt 0.7510 0.6052 0.6052
vt 0.7437 0.6111 0.6111
vt 0.7100 0.6116 0.6116
vt 0.7104 0.6306 0.6306
vt 0.7437 0.6301 0.6301
vt 0.8467 0.6030 0.6030
vt 0.8472 0.6096 0.6096
vt 0.8213 0.6099 0.6099
vt 0.9819 0.8015 0.8015
vt 0.9819 0.8098 0.8098
vt 0.7788 0.8098 0.8098
vt 0.7788 0.8015 0.8015
vt 0.6006 0.8098 0.8098
vt 0.6006 0.8015 0.8015
vt 0.2498 0.4395 0.4395
vt 0.2747 0.4468 0.4468
vt 0.2747 0.6169 0.6169
vt 0.2747 0.4395 0.4395
vt 0.4482 0.4395 0.4395
vt 0.4482 0.4468 0.4468
vt 0.2498 0.6240 0.6240
vt 0.2332 0.6074 0.6074
vt 0.2332 0.4561 0.4561
vt 0.2747 0.6240 0.6240
vt 0.2971 0.6169 0.6169
vt 0.2971 0.6240 0.6240
vt 0.0309 0.5867 0.5867
vt 0.2124 0.5864 0.5864
vt 0.2124 0.5945 0.5945
vt 0.0556 0.4082 0.4082
vt 0.0556 0.4160 0.4160
vt 0.0329 0.4160 0.4160
vt 0.0245 0.4082 0.4082
vt 0.0246 0.5945 0.5945
vt 0.2124 0.6099 0.6099
vt 0.0322 0.6101 0.6101
vt 0.7554 0.3696 0.3696
vt 0.6104 0.3691 0.3691
vt 0.6138 0.3594 0.3594
vt 0.7510 0.3594 0.3594
vt 0.7739 0.3433 0.3433
vt 0.7588 0.3672 0.3672
vt 0.7656 0.3374 0.3374
vt 0.1476 0.3188 0.3188
vt 0.1521 0.4370 0.4370
vt 0.1210 0.4219 0.4219
vt 0.1186 0.3198 0.3198
vt 0.1467 0.2935 0.2935
vt 0.0471 0.3857 0.3857
vt 0.0227 0.3735 0.3735
vt 0.1033 0.2988 0.2988
vt 0.1459 0.2598 0.2598
vt 0.2108 0.2949 0.2949
vt 0.2957 0.3633 0.3633
vt 0.2720 0.3774 0.3774
vt 0.1969 0.3169 0.3169
vt 0.1659 0.2588 0.2588
vt 0.1671 0.2925 0.2925
vt 0.1677 0.3184 0.3184
vt 0.1705 0.4365 0.4365
vt 0.2007 0.4189 0.4189
vt 0.4033 0.6418 0.6418
vt 0.3850 0.6418 0.6418
vt 0.3845 0.6099 0.6099
vt 0.4028 0.6096 0.6096
vt 0.0542 0.7653 0.7653
vt 0.0542 0.7976 0.7976
vt 0.0319 0.7861 0.7861
vt 0.0454 0.7521 0.7521
vt 0.9126 0.3169 0.3169
vt 0.8799 0.2842 0.2842
vt 0.9063 0.2842 0.2842
vt 0.7930 0.6045 0.6045
vt 0.9819 0.7434 0.7434
vt 0.9819 0.7517 0.7517
vt 0.7788 0.7517 0.7517
vt 0.7788 0.7434 0.7434
vt 0.9819 0.7600 0.7600
vt 0.7788 0.7600 0.7600
vt 0.6006 0.7600 0.7600
vt 0.6006 0.7517 0.7517
vt 0.6006 0.7434 0.7434
vt 0.6138 0.2627 0.2627
vt 0.5918 0.2861 0.2861
vt 0.5869 0.2783 0.2783
vt 0.7656 0.2842 0.2842
vt 0.7510 0.2627 0.2627
vt 0.8452 0.4224 0.4224
vt 0.8452 0.5078 0.5078
vt 0.8267 0.5078 0.5078
vt 0.8267 0.4224 0.4224
vt 0.6069 0.2544 0.2544
vt 0.8657 0.6714 0.6714
vt 0.8657 0.7034 0.7034
vt 0.8115 0.7036 0.7036
vt 0.8115 0.6716 0.6716
vt 0.0587 0.0435 0.0435
vt 0.0161 0.0186 0.0186
vt 0.5015 0.0166 0.0166
vt 0.4604 0.0435 0.0435
vt 0.8047 0.1724 0.1724
vt 0.5874 0.1724 0.1724
vt 0.5874 0.0718 0.0718
vt 0.6929 0.0718 0.0718
vt 0.8047 0.0718 0.0718
vt 0.3018 0.5708 0.5708
vt 0.2947 0.5708 0.5708
vt 0.2947 0.5505 0.5505
vt 0.3018 0.5505 0.5505
vt 0.8345 0.0146 0.0146
vt 0.8345 0.1670 0.1670
vt 0.8140 0.1670 0.1670
vt 0.8140 0.0146 0.0146
vt 0.9419 0.6704 0.6704
vt 0.9419 0.6621 0.6621
vt 0.9663 0.6621 0.6621
vt 0.9663 0.6704 0.6704
vt 0.9419 0.4824 0.4824
vt 0.9663 0.4824 0.4824
vt 0.7788 0.7683 0.7683
vt 0.6006 0.7766 0.7766
vt 0.6006 0.7683 0.7683
vt 0.9819 0.7683 0.7683
vt 0.4568 0.9719 0.9719
vt 0.4568 0.9896 0.9896
vt 0.4382 0.9896 0.9896
vt 0.4382 0.9719 0.9719
vt 0.5449 0.1953 0.1953
vt 0.7241 0.1953 0.1953
vt 0.7241 0.1836 0.1836
vt 0.5371 0.1836 0.1836
vt 0.5747 0.0127 0.0127
vt 0.5742 0.0044 0.0044
vt 0.5371 0.0044 0.0044
vt 0.5459 0.0127 0.0127
vt 0.5430 0.1777 0.1777
vt 0.7236 0.1777 0.1777
vt 0.9087 0.1836 0.1836
vt 0.9048 0.1777 0.1777
vt 0.9331 0.1836 0.1836
vt 0.9443 0.1606 0.1606
vt 0.9443 0.0171 0.0171
vt 0.9277 0.0034 0.0034
vt 0.9048 0.0112 0.0112
vt 0.9004 0.0034 0.0034
vt 0.8789 0.0034 0.0034
vt 0.8794 0.0112 0.0112
vt 0.6343 0.8611 0.8611
vt 0.6343 0.8795 0.8795
vt 0.2178 0.6345 0.6345
vt 0.0322 0.6348 0.6348
vt 0.2362 0.6470 0.6470
vt 0.0322 0.6470 0.6470
vt 0.2634 0.6655 0.6655
vt 0.2610 0.6736 0.6736
vt 0.2345 0.6548 0.6548
vt 0.0353 0.6550 0.6550
vt 0.0210 0.6685 0.6685
vt 0.0127 0.6653 0.6653
vt 0.0207 0.8301 0.8301
vt 0.0124 0.8333 0.8333
vt 0.0350 0.8436 0.8436
vt 0.0315 0.8516 0.8516
vt 0.4158 0.8512 0.8512
vt 0.3882 0.8513 0.8513
vt 0.3882 0.8434 0.8434
vt 0.4124 0.8433 0.8433
vt 0.4629 0.8042 0.8042
vt 0.4265 0.8296 0.8296
vt 0.4629 0.6643 0.6643
vt 0.4263 0.6868 0.6868
vt 0.4153 0.6653 0.6653
vt 0.4119 0.6731 0.6731
vt 0.6670 0.6738 0.6738
vt 0.6162 0.6750 0.6750
vt 0.6797 0.6553 0.6553
vt 0.5859 0.6448 0.6448
vt 0.6045 0.6809 0.6809
vt 0.5239 0.7687 0.7687
vt 0.5581 0.7723 0.7723
vt 0.5405 0.7745 0.7745
vt 0.5464 0.7794 0.7794
vt 0.5469 0.7866 0.7866
vt 0.5332 0.7751 0.7751
vt 0.5283 0.7806 0.7806
vt 0.5288 0.7880 0.7880
vt 0.6147 0.5701 0.5701
vt 0.6650 0.5698 0.5698
vt 0.6787 0.5879 0.5879
vt 0.8643 0.5664 0.5664
vt 0.7930 0.5857 0.5857
vt 0.6025 0.5642 0.5642
vt 0.5854 0.6011 0.6011
vt 0.8101 0.5676 0.5676
vt 0.5537 0.4746 0.4746
vt 0.5200 0.4790 0.4790
vt 0.5288 0.4727 0.4727
vt 0.5234 0.4673 0.4673
vt 0.5239 0.4600 0.4600
vt 0.5361 0.4727 0.4727
vt 0.5415 0.4678 0.4678
vt 0.5420 0.4604 0.4604
vt 0.7939 0.6543 0.6543
vt 0.5454 0.2148 0.2148
vt 0.7305 0.2148 0.2148
vt 0.5459 0.2271 0.2271
vt 0.7490 0.2271 0.2271
vt 0.5435 0.4526 0.4526
vt 0.5474 0.4443 0.4443
vt 0.5327 0.4292 0.4292
vt 0.5244 0.4326 0.4326
vt 0.5352 0.2544 0.2544
vt 0.5264 0.2510 0.2510
vt 0.5493 0.2358 0.2358
vt 0.7480 0.2358 0.2358
vt 0.7759 0.2461 0.2461
vt 0.7783 0.2339 0.2339
vt 0.9355 0.2461 0.2461
vt 0.9385 0.2339 0.2339
vt 0.9888 0.2339 0.2339
vt 0.9517 0.2554 0.2554
vt 0.9893 0.3853 0.3853
vt 0.9526 0.4160 0.4160
vt 0.9429 0.4429 0.4429
vt 0.9385 0.4341 0.4341
vt 0.9136 0.4429 0.4429
vt 0.9126 0.4341 0.4341
vt 0.3899 0.7654 0.7654
vt 0.3899 0.7979 0.7979
vt 0.3899 0.8132 0.8132
vt 0.0542 0.8130 0.8130
vt 0.1973 0.9210 0.9210
vt 0.1973 0.9010 0.9010
vt 0.3306 0.9010 0.9010
vt 0.3306 0.9210 0.9210
vt 0.5015 0.9719 0.9719
vt 0.5015 0.9896 0.9896
vt 0.4749 0.9896 0.9896
vt 0.4749 0.9719 0.9719
vt 0.3596 0.9010 0.9010
vt 0.3596 0.9210 0.9210
vt 0.5352 0.9010 0.9010
vt 0.5352 0.9210 0.9210
vt 0.6606 0.9719 0.9719
vt 0.6606 0.9896 0.9896
vt 0.6226 0.9896 0.9896
vt 0.6226 0.9719 0.9719
vt 0.2942 0.5493 0.5493
vt 0.2942 0.5347 0.5347
vt 0.3018 0.5349 0.5349
vt 0.3018 0.5496 0.5496
vt 0.4600 0.0435 0.0435
vt 0.5015 0.0161 0.0161
vt 0.2703 0.0176 0.0176
vt 0.2703 0.0435 0.0435
vt 0.0587 0.0430 0.0430
vt 0.0164 0.0186 0.0186
vt 0.6704 0.4546 0.4546
vt 0.6704 0.4180 0.4180
vt 0.6733 0.4150 0.4150
vt 0.6733 0.4546 0.4546
vt 0.6660 0.4702 0.4702
vt 0.6689 0.4702 0.4702
vt 0.6660 0.5291 0.5291
vt 0.6689 0.5361 0.5361
vt 0.6499 0.4150 0.4150
vt 0.6499 0.4546 0.4546
vt 0.6479 0.4546 0.4546
vt 0.6528 0.4702 0.4702
vt 0.6582 0.4702 0.4702
vt 0.6528 0.5320 0.5320
vt 0.6582 0.5303 0.5303
vt 0.6733 0.5479 0.5479
vt 0.6733 0.4702 0.4702
vt 0.6792 0.4546 0.4546
vt 0.6792 0.4121 0.4121
vt 0.6479 0.4121 0.4121
vt 0.4600 0.2188 0.2188
vt 0.2534 0.2183 0.2183
vt 0.0583 0.2188 0.2188
vt 0.3994 0.7521 0.7521
vt 0.4126 0.7854 0.7854
vt 0.0466 0.8035 0.8035
vt 0.0314 0.7955 0.7955
vt 0.0463 0.8137 0.8137
vt 0.0542 0.8364 0.8364
vt 0.0449 0.8318 0.8318
vt 0.0482 0.7146 0.7146
vt 0.0367 0.7107 0.7107
vt 0.0379 0.7007 0.7007
vt 0.0478 0.6970 0.6970
vt 0.3982 0.8132 0.8132
vt 0.3997 0.8319 0.8319
vt 0.3899 0.8367 0.8367
vt 0.3975 0.8038 0.8038
vt 0.4133 0.7953 0.7953
vt 0.3972 0.6970 0.6970
vt 0.4082 0.7014 0.7014
vt 0.4063 0.7117 0.7117
vt 0.3960 0.7146 0.7146
vt 0.3394 0.5647 0.5647
vt 0.3342 0.5698 0.5698
vt 0.3394 0.5576 0.5576
vt 0.3271 0.5698 0.5698
vt 0.3220 0.5647 0.5647
vt 0.3220 0.5576 0.5576
vt 0.3271 0.5527 0.5527
vt 0.3342 0.5527 0.5527
vt 0.6548 0.4180 0.4180
vt 0.6616 0.5293 0.5293
vt 0.6616 0.4702 0.4702
vt 0.6548 0.4546 0.4546
vt 0.6265 0.5327 0.5327
vt 0.6528 0.5574 0.5574
vt 0.6270 0.5581 0.5581
vt 0.6265 0.4702 0.4702
vt 0.6226 0.4546 0.4546
vt 0.6675 0.4072 0.4072
vt 0.6763 0.4072 0.4072
vt 0.6792 0.3848 0.3848
vt 0.6763 0.3892 0.3892
vt 0.6675 0.3892 0.3892
vt 0.6479 0.3848 0.3848
vt 0.3909 0.5576 0.5576
vt 0.3958 0.5527 0.5527
vt 0.3909 0.5647 0.5647
vt 0.4028 0.5527 0.5527
vt 0.4080 0.5576 0.5576
vt 0.4080 0.5647 0.5647
vt 0.4028 0.5698 0.5698
vt 0.3958 0.5698 0.5698
vt 0.6226 0.4121 0.4121
vt 0.7168 0.5305 0.5305
vt 0.6997 0.5488 0.5488
vt 0.6997 0.4702 0.4702
vt 0.7168 0.4702 0.4702
vt 0.7036 0.4546 0.4546
vt 0.7319 0.4546 0.4546
vt 0.7036 0.4121 0.4121
vt 0.7319 0.4121 0.4121
vt 0.3237 0.4810 0.4810
vt 0.3430 0.4810 0.4810
vt 0.3237 0.5088 0.5088
vt 0.3430 0.5088 0.5088
vt 0.5840 0.3311 0.3311
vt 0.5840 0.2905 0.2905
vt 0.8267 0.3374 0.3374
vt 0.8452 0.3374 0.3374
vt 0.0164 0.2451 0.2451
vt 0.0176 0.0176 0.0176
vt 0.5039 0.2427 0.2427
vt 0.2231 0.9896 0.9896
vt 0.0812 0.9896 0.9896
vt 0.0812 0.9719 0.9719
vt 0.2231 0.9719 0.9719
vt 0.0595 0.9719 0.9719
vt 0.0595 0.9896 0.9896
vt 0.0364 0.9896 0.9896
vt 0.0364 0.9719 0.9719
vt 0.0156 0.9896 0.9896
vt 0.0156 0.9719 0.9719
vt 0.4211 0.8795 0.8795
vt 0.4211 0.8611 0.8611
vt 0.7471 0.9333 0.9333
vt 0.7471 0.9517 0.9517
vt 0.8311 0.8611 0.8611
vt 0.8311 0.8795 0.8795
vt 0.6855 0.8795 0.8795
vt 0.6855 0.8611 0.8611
vt 0.7031 0.9010 0.9010
vt 0.7031 0.9210 0.9210
vt 0.5532 0.9210 0.9210
vt 0.5532 0.9010 0.9010
vt 0.7788 0.9896 0.9896
vt 0.7788 0.9719 0.9719
vt 0.0467 0.9010 0.9010
vt 0.1793 0.9010 0.9010
vt 0.1793 0.9210 0.9210
vt 0.0467 0.9210 0.9210
vt 0.8555 0.9896 0.9896
vt 0.8335 0.9896 0.9896
vt 0.8335 0.9719 0.9719
vt 0.8555 0.9719 0.9719
vt 0.0075 0.9010 0.9010
vt 0.0288 0.9010 0.9010
vt 0.0288 0.9210 0.9210
vt 0.0075 0.9210 0.9210
vt 0.9097 0.2793 0.2793
vt 0.8989 0.2749 0.2749
vt 0.8638 0.3096 0.3096
vt 0.9097 0.3281 0.3281
vt 0.9219 0.3096 0.3096
vt 0.5840 0.6069 0.6069
vt 0.5845 0.6389 0.6389
vt 0.8467 0.1738 0.1738
vt 0.8467 0.0757 0.0757
vt 0.8774 0.0757 0.0757
vt 0.8774 0.1738 0.1738
vt 0.8467 0.0625 0.0625
vt 0.8774 0.0625 0.0625
vt 0.7734 0.2905 0.2905
vt 0.7734 0.3311 0.3311
vt 0.8774 0.0146 0.0146
vt 0.8467 0.0146 0.0146
vt 0.0055 0.2437 0.2437
vt 0.0067 0.0190 0.0190
vt 0.5127 0.0176 0.0176
vt 0.5146 0.2427 0.2427
vt 0.6631 0.8795 0.8795
vt 0.6631 0.8611 0.8611
vt 0.8535 0.8611 0.8611
vt 0.8535 0.8795 0.8795
vt 0.7212 0.9010 0.9010
vt 0.7212 0.9210 0.9210
vt 0.7588 0.2549 0.2549
vt 0.7739 0.2788 0.2788
vt 0.6104 0.2524 0.2524
vt 0.7554 0.2524 0.2524
vt 0.5005 0.0059 0.0059
vt 0.2710 0.0068 0.0068
vt 0.0163 0.0073 0.0073
vt 0.0173 0.0073 0.0073
vt 0.8130 0.4775 0.4775
vt 0.7783 0.4775 0.4775
vt 0.7783 0.4683 0.4683
vt 0.8130 0.4683 0.4683
vt 0.8130 0.4863 0.4863
vt 0.7783 0.4863 0.4863
vt 0.8130 0.4951 0.4951
vt 0.7783 0.4951 0.4951
vt 0.8130 0.5044 0.5044
vt 0.7783 0.5044 0.5044
vt 0.8130 0.3691 0.3691
vt 0.7783 0.3691 0.3691
vt 0.7783 0.3599 0.3599
vt 0.8130 0.3599 0.3599
vt 0.8130 0.3779 0.3779
vt 0.7783 0.3779 0.3779
vt 0.8130 0.3872 0.3872
vt 0.7783 0.3872 0.3872
vt 0.8130 0.3960 0.3960
vt 0.7783 0.3960 0.3960
vt 0.8130 0.4053 0.4053
vt 0.7783 0.4053 0.4053
vt 0.8130 0.4141 0.4141
vt 0.7783 0.4141 0.4141
vt 0.8130 0.4233 0.4233
vt 0.7783 0.4233 0.4233
vt 0.8130 0.4321 0.4321
vt 0.7783 0.4321 0.4321
vt 0.8130 0.4414 0.4414
vt 0.7783 0.4414 0.4414
vt 0.8130 0.4502 0.4502
vt 0.7783 0.4502 0.4502
vt 0.8130 0.4595 0.4595
vt 0.7783 0.4595 0.4595
vt 0.6523 0.8611 0.8611
vt 0.6523 0.8795 0.8795
vt 0.8589 0.3105 0.3105
vt 0.8643 0.3228 0.3228
vt 0.8735 0.3325 0.3325
vt 0.8862 0.3374 0.3374
vt 0.8999 0.3374 0.3374
vt 0.9126 0.3325 0.3325
vt 0.9219 0.3228 0.3228
vt 0.9272 0.3105 0.3105
vt 0.9272 0.2969 0.2969
vt 0.9219 0.2847 0.2847
vt 0.9126 0.2749 0.2749
vt 0.8999 0.2695 0.2695
vt 0.8862 0.2695 0.2695
vt 0.8735 0.2749 0.2749
vt 0.8643 0.2847 0.2847
vt 0.8589 0.2969 0.2969
vt 0.9121 0.3320 0.3320
vt 0.8638 0.3228 0.3228
vt 0.8589 0.3101 0.3101
vt 0.8638 0.2842 0.2842
vt 0.8994 0.2695 0.2695
vt 0.9121 0.2749 0.2749
vt 0.9219 0.2842 0.2842
vt 0.9268 0.2969 0.2969
vt 0.9268 0.3101 0.3101
vt 0.4407 0.6938 0.6938
vt 0.4407 0.4219 0.4219
vt 0.9873 0.4219 0.4219
vt 0.9873 0.6938 0.6938
vt 0.4395 0.3960 0.3960
vt 0.4395 0.1240 0.1240
vt 0.9858 0.1240 0.1240
vt 0.9858 0.3960 0.3960
# 619 texture coords

o computer_02
g computer_02
usemtl material_0
s 1
f 1/1/1 2/2/1 3/3/1 
f 4/4/2 5/5/2 6/6/2 
f 6/6/2 7/7/2 4/4/2 
f 8/8/3 9/9/3 5/10/3 
f 5/10/3 4/11/3 8/8/3 
f 10/12/4 11/13/4 12/14/4 
f 12/14/4 13/15/4 10/12/4 
f 14/16/5 15/17/5 16/18/5 
f 16/18/5 17/19/5 14/16/5 
f 18/20/6 19/21/6 20/22/6 
f 20/22/6 21/23/6 18/20/6 
f 22/24/7 23/25/7 24/26/7 
f 24/26/7 25/27/7 22/24/7 
f 23/25/8 26/28/8 27/29/8 
f 27/29/8 24/26/8 23/25/8 
f 26/28/9 28/30/9 29/31/9 
f 29/31/9 27/29/9 26/28/9 
f 28/30/10 30/32/10 31/33/10 
f 31/33/10 29/31/10 28/30/10 
f 30/32/11 32/34/12 33/35/12 
f 33/35/12 31/33/11 30/32/11 
f 32/34/13 22/24/14 25/27/15 
f 25/27/15 33/35/16 32/34/13 
f 26/28/17 23/25/17 22/24/17 
f 22/24/17 32/34/18 26/28/17 
f 28/30/18 26/28/17 32/34/18 
f 32/34/18 30/32/18 28/30/18 
f 34/36/19 35/37/20 36/38/21 
f 37/39/22 34/36/19 38/40/23 
f 36/38/21 38/40/23 34/36/19 
f 38/40/23 36/38/21 39/41/20 
f 39/41/20 40/42/24 38/40/23 
f 38/40/23 41/43/22 37/39/22 
f 42/44/5 43/45/5 44/46/5 
f 44/46/5 45/47/5 42/44/5 
f 46/48/25 47/49/25 48/50/25 
f 48/50/25 49/51/25 46/48/25 
f 49/51/25 48/50/25 50/52/25 
f 50/52/25 51/53/25 49/51/25 
f 45/47/25 44/46/25 52/54/25 
f 52/54/25 53/55/25 45/47/25 
f 54/56/26 21/23/26 20/22/26 
f 20/22/26 55/57/26 54/56/26 
f 54/56/26 55/57/26 43/45/26 
f 43/45/26 42/44/26 54/56/26 
f 56/58/3 57/59/3 58/60/3 
f 58/60/3 59/61/3 56/58/3 
f 13/15/2 12/14/2 57/62/2 
f 57/62/2 56/63/2 13/15/2 
f 60/64/27 61/65/27 62/66/27 
f 62/66/27 63/67/27 60/64/27 
f 64/68/28 65/69/28 61/65/28 
f 61/65/28 60/64/28 64/68/28 
f 66/70/29 67/71/29 65/69/29 
f 65/69/29 64/68/29 66/70/29 
f 68/72/30 69/73/30 67/71/30 
f 67/71/30 66/70/30 68/72/30 
f 70/74/31 71/75/31 69/73/31 
f 69/73/31 68/72/31 70/74/31 
f 72/76/32 73/77/32 71/75/32 
f 71/75/32 70/74/32 72/76/32 
f 74/78/33 75/79/33 73/77/33 
f 73/77/33 72/76/33 74/78/33 
f 76/80/34 77/81/34 75/79/34 
f 75/79/34 74/78/34 76/80/34 
f 78/82/35 79/83/35 77/81/35 
f 77/81/35 76/80/35 78/82/35 
f 80/84/36 81/85/36 79/83/36 
f 79/83/36 78/82/36 80/84/36 
f 82/86/37 83/87/37 81/85/37 
f 81/85/37 80/84/37 82/86/37 
f 84/88/38 85/89/39 83/87/38 
f 83/87/38 82/86/38 84/88/38 
f 86/90/40 87/91/40 85/89/40 
f 85/89/40 84/88/40 86/90/40 
f 88/92/41 89/93/41 87/91/41 
f 87/91/41 86/90/41 88/92/41 
f 90/94/42 91/95/42 89/93/42 
f 89/93/42 88/92/42 90/94/42 
f 92/96/43 93/97/43 94/98/43 
f 94/98/43 95/99/43 92/96/43 
f 95/99/44 94/98/44 40/100/44 
f 40/100/44 96/101/44 95/99/44 
f 97/102/45 98/103/45 99/104/45 
f 99/104/45 100/105/45 97/102/45 
f 101/106/24 102/107/46 103/108/47 
f 103/108/47 104/109/24 101/106/24 
f 59/61/48 58/60/48 102/107/48 
f 102/107/48 101/106/48 59/61/48 
f 105/110/49 100/111/49 11/13/49 
f 11/13/49 10/12/49 105/110/49 
f 106/112/43 107/113/43 100/111/43 
f 100/111/43 105/110/43 106/112/43 
f 104/109/44 103/108/50 107/113/44 
f 107/113/44 106/112/44 104/109/44 
f 107/114/43 37/115/43 97/102/43 
f 97/102/43 100/105/43 107/114/43 
f 103/116/50 34/117/50 37/115/50 
f 37/115/50 107/114/44 103/116/50 
f 108/118/51 109/119/52 110/120/53 
f 111/121/51 108/118/51 110/120/53 
f 112/122/54 111/121/51 110/120/53 
f 113/123/55 114/124/56 115/125/57 
f 115/125/57 116/126/58 113/123/55 
f 113/123/55 116/126/58 117/127/59 
f 116/126/58 118/128/60 117/127/59 
f 117/127/59 118/128/60 119/129/61 
f 120/130/62 119/129/61 118/128/60 
f 110/120/53 119/129/61 120/130/62 
f 120/130/62 121/131/63 110/120/53 
f 110/120/53 121/131/63 122/132/64 
f 122/132/64 112/122/54 110/120/53 
f 118/128/60 112/122/54 122/132/64 
f 122/132/64 123/133/65 118/128/60 
f 118/128/60 123/133/65 120/130/62 
f 117/127/59 124/134/66 125/135/67 
f 125/135/67 126/136/68 117/127/59 
f 117/127/59 126/136/68 113/123/55 
f 127/137/69 128/138/70 129/139/70 
f 35/37/20 127/137/69 130/140/71 
f 129/139/70 130/140/71 127/137/69 
f 130/140/71 129/139/70 5/141/72 
f 5/141/72 9/142/71 130/140/71 
f 36/38/21 130/140/71 9/142/71 
f 9/142/71 39/41/20 36/38/21 
f 130/140/71 36/38/21 35/37/20 
f 50/143/73 42/144/73 45/145/73 
f 42/144/73 50/143/73 48/146/73 
f 42/144/73 48/146/73 47/147/74 
f 47/147/74 54/148/73 42/144/73 
f 131/149/73 132/150/75 133/151/73 
f 133/151/73 50/143/73 131/149/73 
f 45/145/73 131/149/73 50/143/73 
f 131/149/73 45/145/73 134/152/73 
f 134/152/73 45/145/73 53/153/73 
f 53/153/73 135/154/73 134/152/73 
f 21/155/75 54/156/73 47/157/74 
f 136/158/73 137/159/73 18/160/75 
f 18/160/75 15/161/75 136/158/73 
f 15/161/75 18/160/75 21/155/75 
f 21/155/75 16/162/76 15/161/75 
f 47/157/74 16/162/76 21/155/75 
f 16/162/76 47/157/74 138/163/77 
f 138/163/77 139/164/77 16/162/76 
f 140/165/78 1/166/79 141/167/80 
f 141/167/80 142/168/81 140/165/78 
f 143/169/82 140/170/83 142/168/84 
f 142/168/84 144/171/85 143/169/82 
f 145/172/5 121/173/5 120/174/5 
f 120/174/5 146/175/5 145/172/5 
f 145/172/5 146/175/5 147/176/5 
f 146/175/5 126/177/5 125/178/5 
f 125/178/5 148/179/5 146/175/5 
f 147/176/5 146/175/5 148/179/5 
f 148/179/5 149/180/5 147/176/5 
f 150/181/86 114/182/86 113/183/86 
f 113/183/86 151/184/86 150/181/86 
f 152/185/86 150/181/86 151/184/86 
f 151/184/86 153/186/86 152/185/86 
f 151/184/86 154/187/86 153/186/86 
f 122/188/86 154/187/86 151/184/86 
f 151/184/86 123/189/86 122/188/86 
f 102/190/46 155/191/87 156/192/87 
f 156/192/87 35/193/88 102/190/46 
f 102/190/46 35/193/88 34/117/47 
f 34/117/47 103/116/47 102/190/46 
f 157/194/89 158/195/89 159/196/89 
f 159/196/89 160/197/89 157/194/89 
f 161/67/86 162/72/86 163/70/86 
f 163/70/86 164/68/86 161/67/86 
f 164/68/86 165/64/86 161/67/86 
f 166/80/86 167/76/86 168/198/86 
f 168/198/86 162/72/86 166/80/86 
f 169/199/86 166/80/86 162/72/86 
f 162/72/86 161/67/86 169/199/86 
f 169/199/86 161/67/86 170/94/86 
f 170/94/86 171/92/86 169/199/86 
f 171/92/86 172/90/86 169/199/86 
f 173/78/86 167/76/86 166/80/86 
f 166/80/86 169/199/86 174/86/86 
f 174/86/86 175/84/86 166/80/86 
f 175/84/86 176/200/86 166/80/86 
f 119/129/61 177/201/86 117/127/59 
f 128/202/70 178/203/90 179/204/90 
f 179/204/90 129/205/70 128/202/70 
f 178/203/90 180/206/91 181/207/91 
f 181/207/91 179/204/90 178/203/90 
f 179/204/90 181/207/91 182/208/91 
f 182/208/91 6/209/90 179/204/90 
f 129/205/70 179/204/90 6/209/90 
f 6/209/90 5/210/72 129/205/70 
f 183/211/92 184/212/92 185/213/92 
f 186/214/93 184/212/94 183/211/95 
f 183/211/95 187/215/96 186/214/93 
f 144/171/97 142/168/98 141/167/99 
f 141/167/99 3/3/100 144/171/97 
f 151/216/101 113/217/101 126/218/101 
f 126/218/101 146/219/101 151/216/101 
f 149/180/102 152/185/102 153/186/103 
f 153/186/103 147/176/103 149/180/102 
f 145/172/104 147/176/103 153/186/103 
f 153/186/103 154/187/104 145/172/104 
f 121/173/105 145/172/104 154/187/104 
f 154/187/104 122/188/105 121/173/105 
f 185/213/106 188/220/106 183/211/106 
f 189/221/107 190/222/107 185/223/107 
f 185/223/107 2/224/107 189/221/107 
f 191/225/108 192/226/108 193/227/108 
f 193/227/108 194/228/108 191/225/108 
f 195/229/109 196/230/109 197/231/109 
f 195/229/109 197/231/109 198/232/109 
f 195/229/109 198/232/109 199/233/109 
f 200/234/86 201/235/86 41/236/86 
f 41/236/86 38/237/86 200/234/86 
f 201/238/49 202/239/49 94/240/49 
f 94/240/49 41/241/49 201/238/49 
f 202/242/110 203/243/110 40/244/110 
f 40/244/110 94/245/110 202/242/110 
f 203/243/48 200/246/48 38/247/48 
f 38/247/48 40/244/48 203/243/48 
f 204/248/111 41/43/22 94/249/43 
f 94/249/43 93/250/111 204/248/111 
f 97/251/111 37/39/22 41/43/22 
f 41/43/22 204/248/111 97/251/111 
f 180/206/91 97/251/111 204/248/111 
f 204/248/111 181/207/91 180/206/91 
f 181/207/91 204/248/111 93/250/111 
f 93/250/111 182/208/91 181/207/91 
f 3/3/112 141/167/112 1/1/112 
f 205/252/113 206/253/114 138/254/115 
f 138/254/115 207/255/116 205/252/113 
f 208/256/117 207/257/117 46/258/118 
f 46/258/118 17/259/119 208/256/117 
f 209/260/18 210/261/18 14/262/18 
f 14/262/18 19/263/18 209/260/18 
f 19/263/18 14/262/18 17/259/119 
f 17/259/119 20/264/18 19/263/18 
f 20/264/18 17/259/119 46/258/118 
f 46/258/118 55/265/18 20/264/18 
f 55/265/18 46/258/118 49/266/18 
f 49/266/18 43/267/18 55/265/18 
f 49/266/18 51/268/17 43/267/18 
f 43/267/18 51/268/17 27/29/17 
f 24/26/18 27/29/17 51/268/17 
f 51/268/17 211/269/18 24/26/18 
f 25/27/18 24/26/18 211/269/18 
f 211/269/18 212/270/18 25/27/18 
f 33/35/17 25/27/18 212/270/18 
f 212/270/18 213/271/17 33/35/17 
f 31/33/17 33/35/17 213/271/17 
f 213/271/17 44/272/17 31/33/17 
f 29/31/18 31/33/17 44/272/17 
f 44/272/17 43/267/18 29/31/18 
f 27/29/17 29/31/18 43/267/18 
f 213/271/17 214/273/18 44/272/17 
f 44/272/17 214/273/18 215/274/18 
f 215/274/18 52/275/18 44/272/17 
f 207/255/120 138/254/121 47/49/122 
f 47/49/122 46/48/86 207/255/120 
f 17/19/123 16/18/124 139/276/125 
f 139/276/125 208/277/126 17/19/123 
f 139/164/127 138/163/127 206/278/128 
f 206/278/128 216/279/129 139/164/127 
f 216/279/129 206/278/128 217/280/130 
f 217/280/130 218/281/131 216/279/129 
f 219/282/132 220/283/132 221/284/133 
f 221/284/133 217/280/130 219/282/132 
f 217/280/130 221/284/133 222/285/131 
f 222/285/131 218/281/131 217/280/130 
f 218/281/131 222/285/131 223/286/134 
f 223/286/134 224/287/134 218/281/131 
f 224/287/134 223/286/134 225/288/135 
f 225/288/135 226/289/135 224/287/134 
f 226/289/135 225/288/135 227/290/135 
f 227/290/135 228/291/134 226/289/135 
f 229/292/136 230/293/131 231/294/131 
f 231/294/131 232/295/137 229/292/136 
f 233/296/138 229/292/136 232/295/137 
f 232/295/137 234/297/139 233/296/138 
f 235/298/140 233/296/138 234/297/139 
f 234/297/139 236/299/141 235/298/140 
f 237/300/142 235/298/140 236/299/141 
f 236/299/141 238/301/143 237/300/142 
f 237/300/142 238/301/143 220/283/132 
f 220/283/132 219/282/132 237/300/142 
f 143/302/86 239/303/86 140/304/86 
f 111/121/86 112/122/86 118/128/86 
f 118/128/86 140/304/86 111/121/86 
f 108/118/86 111/121/86 140/304/86 
f 140/304/86 239/303/86 108/118/86 
f 240/305/86 108/118/86 239/303/86 
f 239/303/86 241/306/86 240/305/86 
f 99/307/144 240/305/86 241/306/86 
f 241/306/86 155/308/145 99/307/144 
f 99/307/144 155/308/145 57/309/146 
f 155/308/145 58/310/147 57/309/146 
f 155/308/145 102/311/148 58/310/147 
f 57/309/146 12/312/149 99/307/144 
f 99/307/144 12/312/149 11/313/150 
f 99/307/144 11/313/150 100/314/151 
f 242/315/5 243/316/5 244/317/5 
f 190/318/5 124/134/5 117/127/5 
f 188/319/5 190/318/5 117/127/5 
f 117/127/5 177/201/5 188/319/5 
f 188/319/5 177/201/5 119/129/5 
f 119/129/5 244/317/5 188/319/5 
f 244/317/5 119/129/5 110/120/5 
f 244/317/5 110/120/5 109/119/5 
f 109/119/5 242/315/5 244/317/5 
f 245/320/5 242/315/5 109/119/5 
f 109/119/5 246/321/5 245/320/5 
f 190/318/5 188/319/5 185/322/5 
f 156/323/152 245/320/5 246/321/5 
f 246/321/5 98/324/153 156/323/152 
f 156/323/152 98/324/153 178/325/154 
f 98/324/153 180/326/155 178/325/154 
f 98/324/153 97/327/156 180/326/155 
f 178/325/154 128/328/157 156/323/152 
f 156/323/152 128/328/157 127/329/158 
f 156/323/152 127/329/158 35/330/159 
f 115/125/86 189/221/86 116/126/86 
f 116/126/86 189/221/86 2/224/86 
f 2/224/86 1/331/86 116/126/86 
f 118/128/86 116/126/86 1/331/86 
f 1/331/86 140/304/86 118/128/86 
f 86/90/5 84/88/5 88/92/5 
f 88/92/5 64/68/5 60/64/5 
f 60/64/5 63/67/5 88/92/5 
f 63/67/5 90/94/5 88/92/5 
f 88/92/5 84/88/5 82/86/5 
f 82/86/5 80/84/5 88/92/5 
f 64/68/5 88/92/5 80/84/5 
f 80/84/5 72/76/5 64/68/5 
f 64/68/5 72/76/5 70/74/5 
f 70/74/5 68/72/5 64/68/5 
f 68/72/5 66/70/5 64/68/5 
f 72/76/5 80/84/5 78/82/5 
f 78/82/5 76/80/5 72/76/5 
f 76/80/5 74/78/5 72/76/5 
f 207/257/160 208/256/160 247/332/161 
f 247/332/161 205/333/162 207/257/160 
f 205/333/162 247/332/161 248/334/163 
f 248/334/163 249/335/164 205/333/162 
f 250/336/163 251/337/163 252/338/165 
f 252/338/165 253/339/165 250/336/163 
f 253/339/165 252/338/165 254/340/166 
f 254/340/166 255/341/166 253/339/165 
f 255/341/166 254/340/166 256/342/167 
f 256/342/167 248/334/163 255/341/166 
f 248/334/163 256/342/167 257/343/168 
f 257/343/168 249/335/164 248/334/163 
f 249/335/164 257/343/168 258/344/169 
f 258/344/169 259/345/169 249/335/164 
f 259/345/169 258/344/169 260/346/170 
f 260/346/170 261/347/171 259/345/169 
f 262/348/172 261/347/171 260/346/170 
f 260/346/170 263/349/173 262/348/172 
f 264/350/174 262/348/172 263/349/173 
f 263/349/173 265/351/175 264/350/174 
f 266/352/176 264/350/174 265/351/175 
f 265/351/175 267/353/165 266/352/176 
f 268/354/166 266/352/176 267/353/165 
f 267/353/165 269/355/166 268/354/166 
f 158/195/177 157/194/178 270/356/179 
f 270/356/179 271/357/180 158/195/177 
f 158/195/177 271/357/180 272/358/181 
f 272/358/181 273/359/18 158/195/177 
f 238/360/182 260/361/182 258/362/182 
f 258/362/182 220/363/182 238/360/182 
f 259/364/183 219/365/183 217/366/184 
f 217/366/184 249/367/185 259/364/183 
f 249/367/185 217/366/184 206/253/186 
f 206/253/186 205/252/186 249/367/185 
f 220/363/187 258/362/187 257/368/187 
f 257/368/187 221/369/187 220/363/187 
f 221/369/188 257/368/188 256/370/188 
f 256/370/188 222/371/188 221/369/188 
f 262/372/189 235/373/189 237/374/190 
f 237/374/190 261/375/191 262/372/189 
f 261/375/191 237/374/190 219/365/192 
f 219/365/192 259/364/192 261/375/191 
f 250/376/193 228/377/193 227/378/193 
f 227/378/193 251/379/193 250/376/193 
f 274/380/194 275/381/195 276/382/195 
f 276/382/195 277/383/194 274/380/194 
f 278/384/194 277/383/194 276/382/195 
f 276/382/195 279/385/195 278/384/194 
f 280/386/196 281/387/197 282/388/197 
f 282/388/197 283/389/198 280/386/196 
f 284/390/199 280/386/196 283/389/198 
f 283/389/198 285/391/199 284/390/199 
f 286/392/200 284/390/199 285/391/199 
f 285/391/199 287/393/200 286/392/200 
f 288/394/201 289/395/202 290/396/202 
f 291/397/203 290/396/202 289/395/202 
f 289/395/202 292/398/203 291/397/203 
f 293/399/204 291/397/203 292/398/203 
f 292/398/203 294/400/204 293/399/204 
f 295/401/205 293/399/204 294/400/204 
f 294/400/204 287/393/205 295/401/205 
f 296/402/206 295/401/205 287/393/205 
f 287/393/205 285/391/206 296/402/206 
f 297/403/207 296/402/206 285/391/206 
f 285/391/206 283/389/208 297/403/207 
f 298/404/166 297/403/207 283/389/208 
f 283/389/208 282/388/166 298/404/166 
f 299/405/201 298/404/166 282/388/166 
f 282/388/166 288/394/201 299/405/201 
f 290/396/202 299/405/201 288/394/201 
f 194/228/209 274/406/209 277/407/209 
f 194/228/209 277/407/209 278/408/209 
f 194/228/209 278/408/209 191/225/209 
f 300/409/210 301/410/210 271/357/210 
f 271/357/210 270/356/210 300/409/210 
f 158/195/211 215/411/212 135/412/213 
f 135/412/213 159/196/214 158/195/211 
f 273/359/215 52/413/215 215/411/215 
f 215/411/215 158/195/215 273/359/215 
f 302/414/216 53/415/217 52/413/218 
f 52/413/218 273/359/219 302/414/216 
f 159/416/220 135/417/220 53/418/220 
f 53/418/220 302/419/220 159/416/220 
f 272/358/221 209/420/222 137/421/223 
f 137/421/223 303/422/224 272/358/221 
f 271/357/225 210/423/226 209/420/227 
f 209/420/227 272/358/228 271/357/225 
f 301/410/229 136/424/230 210/423/231 
f 210/423/231 271/357/232 301/410/229 
f 303/425/233 137/426/234 136/427/235 
f 136/427/235 301/428/236 303/425/233 
f 160/197/237 300/409/237 270/356/237 
f 270/356/237 157/194/237 160/197/237 
f 273/359/238 272/358/238 303/422/238 
f 303/422/238 302/414/238 273/359/238 
f 302/419/75 303/425/239 301/428/240 
f 301/428/240 159/416/241 302/419/75 
f 160/197/242 159/416/241 301/428/240 
f 301/428/240 300/409/242 160/197/242 
f 104/429/86 106/430/86 101/431/86 
f 101/431/86 106/430/86 105/432/86 
f 105/432/86 10/433/86 101/431/86 
f 101/431/86 10/433/86 13/434/86 
f 13/434/86 56/435/86 101/431/86 
f 56/435/86 59/436/86 101/431/86 
f 281/387/243 304/437/244 288/394/245 
f 288/394/245 282/388/246 281/387/243 
f 305/438/247 286/392/247 287/393/247 
f 287/393/247 294/400/247 305/438/247 
f 306/439/248 305/438/248 294/400/248 
f 294/400/248 292/398/248 306/439/248 
f 307/440/249 306/439/250 292/398/250 
f 292/398/250 289/395/249 307/440/249 
f 304/437/251 307/440/252 289/395/252 
f 289/395/252 288/394/251 304/437/251 
f 308/441/253 293/399/254 295/442/253 
f 295/442/253 309/443/253 308/441/253 
f 293/399/255 308/441/255 310/444/255 
f 310/444/255 291/397/255 293/399/255 
f 291/397/256 310/444/256 311/445/256 
f 311/445/256 290/396/256 291/397/256 
f 299/405/257 268/446/258 269/447/259 
f 269/447/259 298/404/260 299/405/257 
f 312/448/261 298/404/260 269/447/259 
f 269/447/259 231/449/262 312/448/261 
f 312/448/261 231/449/262 230/450/263 
f 230/450/263 313/451/264 312/448/261 
f 299/405/257 313/451/264 230/450/263 
f 230/450/263 268/446/258 299/405/257 
f 314/452/5 8/453/5 96/454/5 
f 96/454/5 8/453/5 4/455/5 
f 4/455/5 7/456/5 96/454/5 
f 96/454/5 7/456/5 315/457/5 
f 315/457/5 92/458/5 96/454/5 
f 92/458/5 95/459/5 96/454/5 
f 290/396/265 311/445/265 313/460/265 
f 313/460/265 299/405/265 290/396/265 
f 308/461/266 309/462/266 316/463/266 
f 316/463/266 310/464/267 308/461/266 
f 310/464/267 316/463/266 317/465/268 
f 317/465/268 311/466/269 310/464/267 
f 311/466/269 317/465/268 312/467/270 
f 312/467/270 313/468/271 311/466/269 
f 309/462/272 295/401/272 296/402/272 
f 296/402/272 316/463/272 309/462/272 
f 316/463/272 296/402/272 297/403/273 
f 297/403/273 317/465/273 316/463/272 
f 317/465/273 297/403/273 298/404/273 
f 298/404/273 312/467/273 317/465/273 
f 286/392/206 305/438/206 306/439/274 
f 306/439/274 284/390/275 286/392/206 
f 284/390/275 306/439/274 307/440/203 
f 307/440/203 280/386/276 284/390/275 
f 280/386/276 307/440/203 304/437/277 
f 304/437/277 281/387/278 280/386/276 
f 315/469/49 182/470/49 93/97/49 
f 93/97/49 92/96/49 315/469/49 
f 7/7/4 6/6/4 182/470/4 
f 182/470/4 315/469/4 7/7/4 
f 314/471/48 39/472/48 9/9/48 
f 9/9/48 8/8/48 314/471/48 
f 39/472/24 314/471/24 96/101/24 
f 96/101/24 40/100/24 39/472/24 
f 3/3/279 2/473/279 185/474/280 
f 185/474/280 184/212/280 3/3/279 
f 146/219/281 120/475/281 123/476/281 
f 123/476/281 151/216/281 146/219/281 
f 278/408/282 279/477/282 192/478/282 
f 192/478/282 191/225/282 278/408/282 
f 194/228/283 193/227/283 275/479/283 
f 275/479/283 274/406/283 194/228/283 
f 133/480/86 132/481/86 212/482/86 
f 212/482/86 211/483/86 133/480/86 
f 213/484/26 131/485/26 134/486/26 
f 134/486/26 214/487/26 213/484/26 
f 214/487/26 134/486/26 135/488/26 
f 135/488/26 215/489/26 214/487/26 
f 210/490/26 136/491/26 15/17/26 
f 15/17/26 14/16/26 210/490/26 
f 137/492/25 209/493/25 19/21/25 
f 19/21/25 18/20/25 137/492/25 
f 226/494/284 253/495/284 255/496/284 
f 255/496/284 224/497/284 226/494/284 
f 252/498/285 225/499/285 223/500/285 
f 223/500/285 254/501/285 252/498/285 
f 233/502/286 235/373/286 262/372/286 
f 262/372/286 264/503/286 233/502/286 
f 265/504/284 263/505/284 236/506/284 
f 236/506/284 234/507/284 265/504/284 
f 230/508/188 229/509/188 266/510/188 
f 266/510/188 268/511/188 230/508/188 
f 269/512/287 267/513/287 232/514/287 
f 232/514/287 231/515/287 269/512/287 
f 166/80/288 318/81/288 319/79/289 
f 319/79/289 173/78/289 166/80/288 
f 176/200/290 320/516/290 318/81/290 
f 318/81/290 166/80/290 176/200/290 
f 175/84/291 321/517/291 320/516/292 
f 320/516/292 176/200/292 175/84/291 
f 174/86/293 322/87/293 321/517/294 
f 321/517/294 175/84/294 174/86/293 
f 169/199/295 323/89/295 322/87/296 
f 322/87/296 174/86/296 169/199/295 
f 172/90/297 324/91/297 323/89/297 
f 323/89/297 169/199/297 172/90/297 
f 171/92/298 325/93/298 324/91/298 
f 324/91/298 172/90/299 171/92/298 
f 170/94/300 326/518/300 325/93/301 
f 325/93/301 171/92/301 170/94/300 
f 161/67/302 327/66/302 326/518/303 
f 326/518/303 170/94/303 161/67/302 
f 165/64/304 328/65/304 327/66/304 
f 327/66/304 161/67/304 165/64/304 
f 164/68/305 329/69/305 328/65/305 
f 328/65/305 165/64/306 164/68/305 
f 163/70/307 330/71/307 329/69/308 
f 329/69/308 164/68/308 163/70/307 
f 162/72/309 331/519/309 330/71/310 
f 330/71/310 163/70/310 162/72/309 
f 168/198/311 332/75/311 331/519/311 
f 331/519/311 162/72/311 168/198/311 
f 167/76/312 333/520/312 332/75/312 
f 332/75/312 168/198/313 167/76/312 
f 173/78/314 319/79/314 333/520/315 
f 333/520/315 167/76/315 173/78/314 
f 63/67/316 62/66/316 91/95/316 
f 91/95/316 90/94/316 63/67/316 
f 98/103/317 246/521/317 240/522/317 
f 240/522/317 99/104/317 98/103/317 
f 155/523/87 241/524/318 245/525/318 
f 245/525/318 156/526/87 155/523/87 
f 246/521/319 109/119/319 108/118/319 
f 108/118/319 240/522/319 246/521/319 
f 241/524/320 239/527/320 242/528/320 
f 242/528/320 245/525/320 241/524/320 
f 186/214/321 243/529/322 143/530/323 
f 143/530/323 144/171/323 186/214/321 
f 184/212/324 186/214/325 144/171/325 
f 144/171/325 3/3/324 184/212/324 
f 243/531/326 242/528/326 239/527/326 
f 239/527/326 143/532/326 243/531/326 
f 279/477/86 197/533/86 196/534/86 
f 196/534/86 192/478/86 279/477/86 
f 193/227/5 195/535/5 199/536/5 
f 199/536/5 275/479/5 193/227/5 
f 50/52/327 133/480/327 211/483/327 
f 211/483/327 51/53/327 50/52/327 
f 132/481/328 131/485/328 213/484/328 
f 213/484/328 212/482/328 132/481/328 
f 224/497/329 255/496/329 248/537/329 
f 248/537/329 218/538/329 224/497/329 
f 254/501/330 223/500/331 222/371/330 
f 222/371/330 256/370/330 254/501/330 
f 228/539/332 250/540/332 253/495/332 
f 253/495/332 226/494/332 228/539/332 
f 251/541/333 227/542/333 225/499/333 
f 225/499/333 252/498/333 251/541/333 
f 263/505/332 260/361/332 238/360/332 
f 238/360/332 236/506/332 263/505/332 
f 229/509/334 233/502/334 264/503/334 
f 264/503/334 266/510/334 229/509/334 
f 267/513/335 265/504/335 234/507/335 
f 234/507/335 232/514/335 267/513/335 
f 244/543/336 243/544/337 186/214/338 
f 186/214/338 187/215/339 244/543/336 
f 188/545/340 244/546/341 187/215/342 
f 187/215/342 183/211/343 188/545/340 
f 275/381/195 199/547/319 198/548/319 
f 198/548/319 276/382/195 275/381/195 
f 276/382/195 198/548/319 197/549/319 
f 197/549/319 279/385/195 276/382/195 
f 192/226/320 196/550/320 195/547/320 
f 195/547/320 193/227/320 192/226/320 
f 334/551/344 335/552/344 336/553/344 
f 336/553/344 337/554/344 334/551/344 
f 338/555/345 339/556/345 335/552/345 
f 335/552/345 334/551/345 338/555/345 
f 340/557/346 341/558/346 339/556/346 
f 339/556/346 338/555/346 340/557/346 
f 342/559/347 343/560/347 341/558/347 
f 341/558/347 340/557/347 342/559/347 
f 344/561/348 345/562/348 343/563/348 
f 343/563/348 342/564/348 344/561/348 
f 346/565/349 347/566/349 345/562/349 
f 345/562/349 344/561/349 346/565/349 
f 348/567/350 349/568/350 347/566/350 
f 347/566/350 346/565/350 348/567/350 
f 350/569/351 351/570/351 349/568/351 
f 349/568/351 348/567/351 350/569/351 
f 352/571/352 353/572/352 351/570/352 
f 351/570/352 350/569/352 352/571/352 
f 354/573/353 355/574/353 353/572/353 
f 353/572/353 352/571/353 354/573/353 
f 356/575/354 357/576/354 355/574/354 
f 355/574/354 354/573/354 356/575/354 
f 358/577/355 359/578/355 357/576/355 
f 357/576/355 356/575/355 358/577/355 
f 360/579/356 361/580/356 359/578/356 
f 359/578/356 358/577/356 360/579/356 
f 362/581/357 363/582/357 361/580/357 
f 361/580/357 360/579/357 362/581/357 
f 364/583/358 365/584/358 363/582/358 
f 363/582/358 362/581/358 364/583/358 
f 337/554/359 336/553/359 365/584/359 
f 365/584/359 364/583/359 337/554/359 
f 208/277/360 139/276/360 216/585/360 
f 216/585/360 247/586/360 208/277/360 
f 247/586/360 216/585/360 218/538/360 
f 218/538/360 248/537/361 247/586/360 
f 350/587/86 326/518/86 327/66/86 
f 327/66/86 352/588/86 350/587/86 
f 352/588/86 327/66/86 328/65/86 
f 328/65/86 354/589/86 352/588/86 
f 354/589/86 328/65/86 329/69/86 
f 329/69/86 356/590/86 354/589/86 
f 356/590/86 329/69/86 330/71/86 
f 330/71/86 358/591/86 356/590/86 
f 358/591/86 330/71/86 331/519/86 
f 331/519/86 360/592/86 358/591/86 
f 360/592/86 331/519/86 332/75/86 
f 332/75/86 362/593/86 360/592/86 
f 362/593/86 332/75/86 333/520/86 
f 333/520/86 364/594/86 362/593/86 
f 364/594/86 333/520/86 319/79/86 
f 319/79/86 337/595/86 364/594/86 
f 337/595/86 319/79/86 318/81/86 
f 318/81/86 334/596/86 337/595/86 
f 334/596/86 318/81/86 320/516/86 
f 320/516/86 338/597/86 334/596/86 
f 338/597/86 320/516/86 321/517/86 
f 321/517/86 340/598/86 338/597/86 
f 340/598/86 321/517/86 322/87/86 
f 322/87/86 342/599/86 340/598/86 
f 342/599/86 322/87/86 323/89/86 
f 323/89/86 344/600/86 342/599/86 
f 344/600/86 323/89/86 324/91/86 
f 324/91/86 346/601/86 344/600/86 
f 346/601/86 324/91/86 325/93/86 
f 325/93/86 348/602/86 346/601/86 
f 348/602/86 325/93/86 326/518/86 
f 326/518/86 350/587/86 348/602/86 
f 71/75/5 353/593/5 355/603/5 
f 355/603/5 69/73/5 71/75/5 
f 69/73/5 355/603/5 357/591/5 
f 357/591/5 67/71/5 69/73/5 
f 67/71/5 357/591/5 359/590/5 
f 359/590/5 65/69/5 67/71/5 
f 65/69/5 359/590/5 361/589/5 
f 361/589/5 61/65/5 65/69/5 
f 61/65/5 361/589/5 363/604/5 
f 363/604/5 62/66/5 61/65/5 
f 62/66/5 363/604/5 365/605/5 
f 365/605/5 91/95/5 62/66/5 
f 91/95/5 365/605/5 336/602/5 
f 336/602/5 89/93/5 91/95/5 
f 89/93/5 336/602/5 335/606/5 
f 335/606/5 87/91/5 89/93/5 
f 87/91/5 335/606/5 339/600/5 
f 339/600/5 85/89/5 87/91/5 
f 85/89/5 339/600/5 341/599/5 
f 341/599/5 83/87/5 85/89/5 
f 83/87/5 341/599/5 343/607/5 
f 343/607/5 81/85/5 83/87/5 
f 81/85/5 343/607/5 345/608/5 
f 345/608/5 79/83/5 81/85/5 
f 79/83/5 345/608/5 347/609/5 
f 347/609/5 77/81/5 79/83/5 
f 77/81/5 347/609/5 349/610/5 
f 349/610/5 75/79/5 77/81/5 
f 75/79/5 349/610/5 351/611/5 
f 351/611/5 73/77/5 75/79/5 
f 73/77/5 351/611/5 353/593/5 
f 353/593/5 71/75/5 73/77/5 
usemtl material_1
f 366/612/362 367/613/362 368/614/362 
f 368/614/362 369/615/362 366/612/362 
f 370/616/363 371/617/363 372/618/363 
f 372/618/363 373/619/363 370/616/363 
f 374/616/364 375/619/364 376/618/364 
f 376/618/364 377/617/364 374/616/364 
f 378/616/365 379/619/365 380/618/365 
f 380/618/365 381/617/365 378/616/365 
# 0 polygons - 720 triangles

